<svg id="Layer_1" data-name="Layer 1" xmlns="http://www.w3.org/2000/svg" xmlns:xlink="http://www.w3.org/1999/xlink" viewBox="0 0 400 300"><defs><linearGradient id="linear-gradient" x1="179.69" y1="233.82" x2="212.55" y2="176.65" gradientUnits="userSpaceOnUse"><stop offset="0" stop-opacity="0"/><stop offset="0.99" stop-color="#006837"/></linearGradient><linearGradient id="linear-gradient-2" x1="133.83" y1="140.73" x2="157.8" y2="129.59" xlink:href="#linear-gradient"/><linearGradient id="linear-gradient-3" x1="263.75" y1="239.36" x2="297.15" y2="211.42" xlink:href="#linear-gradient"/><linearGradient id="linear-gradient-4" x1="175.64" y1="182.46" x2="196.9" y2="157.05" gradientUnits="userSpaceOnUse"><stop offset="0" stop-opacity="0"/><stop offset="0.99" stop-color="#1a1a1a"/></linearGradient></defs><title>61-70</title><polygon points="45.4 175.13 227.36 280.08 348.55 209.17 167.05 104.38 45.4 175.13" fill="#b5e5e1"/><polyline points="269.91 210.91 191.07 258.98 114.47 213.25 189.37 167.14" opacity="0.32" fill="url(#linear-gradient)"/><polygon points="140.47 127.35 84.41 158.57 99.49 166.96 156.55 134.6 164.88 129.13 140.47 127.35" opacity="0.32" fill="url(#linear-gradient-2)"/><polyline points="320.47 210.1 263.41 242.46 248.33 234.07 304.39 202.84" opacity="0.32" fill="url(#linear-gradient-3)"/><polyline points="239.16 186.02 239.16 221.68 241.8 221.68 242.37 185.09" fill="gray"/><polyline points="254.17 172.3 259.45 211.07 256.81 211.07 251.29 173.74" fill="gray"/><path d="M200.86,199.41s-2.46,8.07-3,8.89-8.61,6.15-8.48,7.79,3.18,2.32,5.08,2.19,12.83-4.7,13.52-6,.68-12.83.68-12.83Z" fill="#5c2d1d"/><path d="M213.82,208.85s-2.46,8.07-3,8.89-8.61,6.15-8.48,7.79,3.18,2.32,5.08,2.19,12.83-4.7,13.52-6,.68-12.83.68-12.83Z" fill="#5c2d1d"/><path d="M255.6,135.44c-.7,2-4.65,31.7-4.65,31.7l-4-1.33,5.18-30.53" fill="gray"/><polyline points="254.17 172.3 254.24 167.51 250 168.96 251.29 173.74" fill="#a9cbf8"/><path d="M244.58,164.88s10.65,4.09,9.58,8.11-9.57,13.87-15,13-12.09-5.59-12.09-5.59" fill="#4a42a4"/><path d="M244.58,160s10.65,4.09,9.58,8.11-9.57,13.87-15,13-12.09-5.59-12.09-5.59" fill="#a6aced"/><path d="M248.8,122.64s10.29,2.57,11.33,8.49,1.34,16.84-13.26,12.6-7.71-15.21-7.71-15.21" fill="#a6aced"/><path d="M235.07,135.28s3.63,15.26.94,23.43-18,14.72-18,14.72l-6.45,32.85c-8.57,2.69-15.94-1.88-15.94-1.88s1.78-29,4.5-36.35,23.77-21.81,23.77-21.81" fill="#895851"/><path d="M235.69,154.69s-21.06,14.45-23.77,21.81-4.5,36.35-4.5,36.35,7.37,4.58,15.94,1.88l6.45-32.85s11-3.13,13.64-11.3S245,150,245,150" fill="#895851"/><path d="M244.06,155c3.59-8.74,5.15-31.45,2.92-34.19-4.61-5.67-14.33-5-14.33-5s-5.65-3.38-10.37.62c-3.52,3-1,21.26,0,32.88C228.43,155,235.23,156.58,244.06,155Z" fill="#8cc63f"/><path d="M229,157.6c-3.79,3.78-7.85,7.43-11.38,11.46-3.06,3.5-4.27,7.95-5.46,12.35-2.77,10.26-4,20.85-5.23,31.38-.07.64.93.63,1,0,1.18-10.13,2.38-20.31,5-30.2,1.26-4.85,2.53-9.67,6-13.44s7.21-7.24,10.82-10.84A.5.5,0,0,0,229,157.6Z" fill="#5c2d1d"/><path d="M270.53,182.67l2-1.08-89.88-51.49-58.47,33.16.79.46v43.77a.44.44,0,0,0,.87,0V164.24l86.47,50.52.21-.12v31.52a.44.44,0,0,0,.87,0v-32L269.92,183s0,0,0,0v27.86a.44.44,0,0,0,.87,0V183A.39.39,0,0,0,270.53,182.67Z" fill="#15a4fa"/><path d="M270.53,182.67l2-1.08-89.88-51.49-58.47,33.16.79.46v43.77a.44.44,0,0,0,.87,0V164.24l86.47,50.52.21-.12v31.52a.44.44,0,0,0,.87,0v-32L269.92,183s0,0,0,0v27.86a.44.44,0,0,0,.87,0V183A.39.39,0,0,0,270.53,182.67Z" opacity="0.15"/><path d="M68.27,158.55,50.38,144.91c-.51-.39-1,.48-.5.86l17.89,13.64C68.28,159.8,68.78,158.93,68.27,158.55Z" fill="#fa7202"/><path d="M143.63,116.35a3,3,0,0,1-1.23-.27l-.19,1.25,20,.51v-1.49Z" fill="gray"/><path d="M142.39,116.13l-.18,1.2,11.05,6.38v-1.55C149.54,120.35,145.94,118.27,142.39,116.13Z" fill="gray"/><path d="M153.55,29.82a3.19,3.19,0,0,1-1.92-.28L138.95,127.4c.77.47,1.57.89,2.35,1.33l12.83-99Z" fill="gray"/><path d="M156.47,29.71a6.38,6.38,0,0,1-1.39,0c-.37,0-.75,0-1.12.06l8.57,100.34a20.33,20.33,0,0,1,2-.85l.34-.17.06,0Z" fill="gray"/><path d="M155.08,29.72a11.51,11.51,0,0,0-1.53.11,3.81,3.81,0,0,1-.6,0l-.84,106h0a2.61,2.61,0,0,1,1.34-.11h.72l.42,0,.84-106Z" fill="gray"/><path d="M141.24,31.41V53.32s25.22.75,25.22,0V31.41" fill="#15a4fa"/><ellipse cx="153.85" cy="31.36" rx="12.61" ry="5.84" fill="#15a4fa"/><ellipse cx="153.85" cy="31.36" rx="12.61" ry="5.84" opacity="0.19"/><ellipse cx="153.85" cy="53.66" rx="12.61" ry="5.84" fill="#15a4fa"/><polygon points="316.96 134.23 320.08 132.64 316.58 129.22 316.96 134.23" fill="#d64338"/><polygon points="273.91 65.71 277.04 64.12 278.27 68.23 273.91 65.71" fill="#d64338"/><polygon points="277.04 64.12 320.08 88.97 320.08 132.64 277.04 106.8 277.04 64.12" fill="#d64338"/><polygon points="273.91 65.71 316.96 90.56 316.96 134.23 273.91 108.39 273.91 65.71" fill="#ff6753"/><polygon points="278.74 73.4 312.13 92.67 312.13 126.55 278.74 106.5 278.74 73.4" fill="#fff"/><polygon points="285.65 86.69 285.58 87.67 285.58 102.44 303.01 112.1 303.01 96.71 285.65 86.69" fill="#15a4fa"/><polyline points="298.26 194.04 298.26 207.77 320.47 207.77 320.47 194.04" fill="#15a4fa"/><ellipse cx="309.36" cy="194.05" rx="11.11" ry="5.46" fill="#15a4fa"/><ellipse cx="309.36" cy="194.05" rx="11.11" ry="5.46" opacity="0.19"/><ellipse cx="309.36" cy="208.31" rx="11.11" ry="5.46" fill="#15a4fa"/><path d="M321.8,162.13c-2.34-1-5.59-4.15-8.43-4.05a33.19,33.19,0,0,0-1.72,8.43,76.47,76.47,0,0,0-.32,14.07q.1,1.57.26,3.13a2.49,2.49,0,0,0,.25.88q0,5.43,0,10.87a.35.35,0,0,0,.69,0q0-5.23,0-10.45a15.41,15.41,0,0,0,3.18-1.47,10.82,10.82,0,0,0,4.47-5.62c1.79-5,.66-10.56,2.36-15.5C322.29,162.31,322,162.23,321.8,162.13Z" fill="#297600"/><path d="M317,153.95a8.7,8.7,0,0,0-3.17,3.24,5.44,5.44,0,0,0-.5,1l-.1.21h0a14.52,14.52,0,0,0-.53,1.72,2.15,2.15,0,0,1,1.18-.93,2.94,2.94,0,0,1,1.85-.17,7.77,7.77,0,0,1,1.7.91c.79.48,1.55,1,2.34,1.51,3.68,2.34,8.58,2.58,11.42-.83,0-.13.07-.27.1-.41C331.7,157.84,325.13,149.22,317,153.95Z" fill="#5fad00"/><path d="M329.55,162l.46-.3a.31.31,0,0,0-.09-.26c-2.22-2.28-4.61-4.52-7.65-5.65a13.11,13.11,0,0,0-6.83-.67c-.25.29-.47.59-.69.89a11.87,11.87,0,0,1,7.86.65,22,22,0,0,1,6.84,5.26A.33.33,0,0,0,329.55,162Z" fill="#297600"/><path d="M292.27,167a9.27,9.27,0,0,0-5,8.9c.26,6.55,11.06.16,13.93-5.37s3.32,2.36,3.32,2.36" fill="#297600"/><path d="M302,164.71a19.55,19.55,0,0,0-6,.83,14.54,14.54,0,0,0-3.73,1.46,12,12,0,0,0,2.16,1.15,6.56,6.56,0,0,1,3.49,2.5,5,5,0,0,1,.42,1c.66,2.16.09,4.77,1,6.94s2.7,4.08,5.25,4.24c3,.19,4.44-2.74,5-5.27s1.42-6,.46-8.58C308.94,165.94,304.87,164.85,302,164.71Z" fill="#5fad00"/><path d="M306,174.94c-1.28-4.14-4-8-7.95-9.88h-.15l-.19.06-.72.19c4.61,1.71,7.51,6.26,8.7,10.91,1.51,5.95,1,12.39,1,18.47a.32.32,0,0,0,.64,0C307.34,188.2,307.94,181.23,306,174.94Z" fill="#297600"/><polyline points="134.6 113.24 134.6 152.66 104.07 170.28 79.2 155.5 79.2 118.87" fill="#4a42a4"/><polygon points="104.07 170.28 104.07 131.39 79.2 120.37 79.2 155.5 104.07 170.28" fill="#4a42a4"/><polyline points="79.2 116.83 79.2 120.37 81.56 121.09 83.13 118.69" fill="#9093d3"/><path d="M109.46,101.89l25.14,14.89-31.44,18.15c-.93.54-24-14.56-24-14.56Z" fill="#9093d3"/><polyline points="134.6 116.78 134.6 113.24 130.08 110.99 130.64 117.29" fill="#9093d3"/><path d="M109.46,98.34l25.14,14.89-31.44,18.15c-.93.54-24-14.56-24-14.56Z" fill="#a6aced"/><polygon points="130.22 124.36 130.22 132.52 107.34 145.56 107.34 137.56 130.22 124.36" fill="#7374b7"/><polygon points="130.52 136.55 130.52 144.71 107.64 157.76 107.64 149.76 130.52 136.55" fill="#7374b7"/><ellipse cx="119.81" cy="134.55" rx="1.46" ry="1.03" transform="translate(-25.51 241.04) rotate(-84.55)" fill="#ffb883"/><ellipse cx="120.75" cy="146.31" rx="1.46" ry="1.03" transform="translate(-36.37 252.62) rotate(-84.55)" fill="#ffb883"/><polyline points="100.87 132.68 100.87 172.1 70.33 189.73 45.47 174.94 45.47 138.31" fill="#4a42a4"/><polygon points="70.33 189.73 70.33 150.83 45.47 139.81 45.47 174.94 70.33 189.73" fill="#4a42a4"/><polyline points="45.47 136.27 45.47 139.81 47.83 140.53 49.4 138.13" fill="#9093d3"/><path d="M75.73,121.33l25.14,14.89L69.43,154.38c-.93.54-24-14.56-24-14.56Z" fill="#9093d3"/><polyline points="100.87 136.22 100.87 132.68 96.34 130.44 96.9 136.73" fill="#9093d3"/><path d="M75.73,117.79l25.14,14.89L69.43,150.83c-.93.54-24-14.56-24-14.56Z" fill="#a6aced"/><polygon points="96.48 143.8 96.48 151.96 73.6 165.01 73.6 157 96.48 143.8" fill="#7374b7"/><polygon points="96.78 155.99 96.78 164.15 73.91 177.2 73.91 169.2 96.78 155.99" fill="#7374b7"/><ellipse cx="86.07" cy="153.99" rx="1.46" ry="1.03" transform="translate(-75.4 225.05) rotate(-84.55)" fill="#ffb883"/><ellipse cx="87.01" cy="165.75" rx="1.46" ry="1.03" transform="translate(-86.25 236.63) rotate(-84.55)" fill="#ffb883"/><path d="M180.35,161.65l-28.24,15.73c4.72,3,23.71,13.2,28.27,16.41l29.19-18.68-4.81-11.69Z" opacity="0.32" fill="url(#linear-gradient-4)"/><polyline points="203.68 178.55 224.24 166.56 197.44 151.16 176.43 161.98" fill="#b3b3b3"/><path d="M198.35,154.91s5.4,23.93,5.32,23.64S177,164,176.87,163.47s-7-24.79-7-24.79Z" fill="#fff"/><polygon points="190.59 150.49 196.13 147.15 202.72 152.65 197.76 154.73 190.59 150.49" fill="#ffe0ce"/><path d="M193.65,146.7s7.33,2.58,6.72,9.37c0,0,11.43-4.76,14-7.79s7.93-9.6,7.93-9.6V116.44s-13.83,21.48-16.82,24.07C203,142.59,193.65,146.7,193.65,146.7Z" fill="#8cc63f"/><path d="M231.5,112.78c0,1.87,0,3.74-.05,5.61.34.86.81,1.45,1.49,1.38,2.23-.24,4.88-3.57,4.88-3.57l.39-5.2Z" fill="#f9c7af"/><path d="M242.35,99.87c-1.39-3-4.13-3.57-7-3a6.21,6.21,0,0,0-2.14-1,6.72,6.72,0,0,0-6.77,2.19,4.56,4.56,0,0,0-2.27.3c-2.13.9-2.39,3.17-1.89,5.16,0,.08,0,.15.08.23.22,3.53,3.66,5,3.66,5l11.05,5.51a8,8,0,0,0,2.94-2.76,4.26,4.26,0,0,0,.45-1.45,1.68,1.68,0,0,0,.22-.22C242.86,107.09,243.87,103.16,242.35,99.87Z" fill="#895851"/><path d="M225.77,105.94c.28,1.18,2.27,12.38,7.32,11.44s5.37-8.4,5.37-8.4-4.58-1.24-4.94-3-.18-2.47-2.42-2.93S225.3,104,225.77,105.94Z" fill="#ffe0ce"/><polygon points="221.36 139.8 220.64 128.86 217.33 144.69 221.36 139.8" fill="#6d9928"/><path d="M221.74,158.45a3.67,3.67,0,0,0-1.26.38c-1.2.58-2.52,1-3.71,1.6a12.26,12.26,0,0,0-4.65,4.88c-.24.53-1.26,2.44-.73,3s1.73,0,1.73,0-.06,1.1.32,1.35S215,169,215,169s.52,1.34,1.25,1,2-2.24,2-2.24-.14,1.47.5,1.47,3.36-3.74,3.36-3.74l5.75-3s-1.7-1.84-1.87-2a8.71,8.71,0,0,0-2.7-1.83A3.35,3.35,0,0,0,221.74,158.45Z" fill="#ffe0ce"/><path d="M220.75,163.31a13.09,13.09,0,0,0-2.86,4.9c-.07.22.28.32.35.1a12.65,12.65,0,0,1,2.77-4.73C221.17,163.39,220.91,163.13,220.75,163.31Z" fill="#5c2d1d"/><path d="M219.07,162.18a14.14,14.14,0,0,0-4.24,7.07.18.18,0,0,0,.35.1,13.8,13.8,0,0,1,4.14-6.91C219.5,162.28,219.24,162,219.07,162.18Z" fill="#5c2d1d"/><path d="M217.36,161.79a14.84,14.84,0,0,0-4.42,6.59c-.08.22.28.32.35.1a14.48,14.48,0,0,1,4.33-6.42C217.79,161.9,217.53,161.64,217.36,161.79Z" fill="#5c2d1d"/><path d="M247.31,139.5s-2.11,13.47-4.95,16.57-15.3,8.63-15.3,8.63-3.12-5.49-6.43-6.79c0,0,12.71-7.14,13-8.49" fill="#8cc63f"/><path d="M236.86,130.48c-.21,2.91-.51,5.8-.93,8.68a41.74,41.74,0,0,1-1.41,7.65c-.93,2.65-4.47,4.22-6.72,5.68s-4.77,3-7.18,4.52c-.55.33,0,1.2.5.86q4.23-2.58,8.37-5.29c1.87-1.23,4.72-2.5,5.71-4.65,1.08-2.34,1.25-5.51,1.63-8,.47-3.12.81-6.26,1-9.41C237.91,129.84,236.91,129.84,236.86,130.48Z" fill="#6d9928"/></svg>